<svg width="333" height="308" viewBox="0 0 333 308" fill="none" xmlns="http://www.w3.org/2000/svg">
<path d="M25.3185 293C24.6972 293 24.1748 292.788 23.7512 292.365C23.3276 291.941 23.1158 291.419 23.1158 290.797V262.119C23.1158 261.47 23.3276 260.947 23.7512 260.552C24.1748 260.128 24.6972 259.917 25.3185 259.917H33.7906C35.9086 259.917 37.7866 260.382 39.4245 261.314C41.0625 262.246 42.3333 263.545 43.237 265.212C44.1689 266.849 44.6349 268.742 44.6349 270.888C44.6349 272.949 44.1689 274.785 43.237 276.395C42.3333 278.004 41.0625 279.261 39.4245 280.165C37.7866 281.068 35.9086 281.52 33.7906 281.52H27.5212V290.797C27.5212 291.419 27.3094 291.941 26.8858 292.365C26.4905 292.788 25.968 293 25.3185 293ZM27.5212 277.454H33.7906C35.0896 277.454 36.2334 277.171 37.2218 276.607C38.2102 276.042 38.9868 275.265 39.5516 274.277C40.1164 273.288 40.3988 272.159 40.3988 270.888C40.3988 269.532 40.1164 268.346 39.5516 267.33C38.9868 266.285 38.2102 265.466 37.2218 264.873C36.2334 264.28 35.0896 263.983 33.7906 263.983H27.5212V277.454ZM51.711 293C51.0897 293 50.5673 292.788 50.1437 292.365C49.7201 291.941 49.5083 291.419 49.5083 290.797V262.119C49.5083 261.47 49.7201 260.947 50.1437 260.552C50.5673 260.128 51.0897 259.917 51.711 259.917H59.3359C61.4539 259.917 63.3319 260.368 64.9698 261.272C66.6078 262.147 67.8786 263.362 68.7823 264.915C69.7142 266.468 70.1802 268.276 70.1802 270.337C70.1802 272.258 69.7142 273.966 68.7823 275.463C67.8786 276.96 66.6078 278.131 64.9698 278.979C63.3319 279.826 61.4539 280.25 59.3359 280.25H53.9138V290.797C53.9138 291.419 53.702 291.941 53.2784 292.365C52.883 292.788 52.3606 293 51.711 293ZM69.2906 293C68.8952 293 68.5281 292.915 68.1892 292.746C67.8786 292.576 67.6103 292.308 67.3844 291.941L59.7595 279.656L64.0379 278.428L70.985 289.611C71.4934 290.43 71.564 291.207 71.1968 291.941C70.8297 292.647 70.1943 293 69.2906 293ZM53.9138 276.183H59.3359C60.635 276.183 61.7787 275.943 62.7671 275.463C63.7555 274.954 64.5321 274.263 65.0969 273.387C65.6617 272.483 65.9441 271.467 65.9441 270.337C65.9441 269.095 65.6617 267.993 65.0969 267.033C64.5321 266.073 63.7555 265.325 62.7671 264.788C61.7787 264.251 60.635 263.983 59.3359 263.983H53.9138V276.183ZM91.5652 293.424C89.0801 293.424 86.8068 293.014 84.7452 292.195C82.6837 291.348 80.9045 290.176 79.4078 288.679C77.9393 287.154 76.7956 285.361 75.9766 283.299C75.1576 281.21 74.7482 278.922 74.7482 276.437C74.7482 273.952 75.1576 271.679 75.9766 269.617C76.7956 267.556 77.9393 265.776 79.4078 264.28C80.9045 262.755 82.6837 261.583 84.7452 260.764C86.8068 259.917 89.0801 259.493 91.5652 259.493C94.0504 259.493 96.3096 259.917 98.3429 260.764C100.404 261.583 102.184 262.755 103.68 264.28C105.177 265.776 106.335 267.556 107.154 269.617C107.973 271.679 108.382 273.952 108.382 276.437C108.382 278.922 107.973 281.21 107.154 283.299C106.335 285.361 105.177 287.154 103.68 288.679C102.184 290.176 100.404 291.348 98.3429 292.195C96.3096 293.014 94.0504 293.424 91.5652 293.424ZM91.5652 289.442C93.4009 289.442 95.0812 289.117 96.6061 288.467C98.1593 287.79 99.5008 286.872 100.63 285.714C101.76 284.528 102.621 283.144 103.214 281.563C103.836 279.981 104.146 278.273 104.146 276.437C104.146 274.601 103.836 272.893 103.214 271.311C102.621 269.73 101.76 268.36 100.63 267.203C99.5008 266.016 98.1593 265.099 96.6061 264.449C95.0812 263.8 93.4009 263.475 91.5652 263.475C89.7296 263.475 88.0352 263.8 86.482 264.449C84.957 265.099 83.6297 266.016 82.5001 267.203C81.3987 268.36 80.5374 269.73 79.9161 271.311C79.2948 272.893 78.9842 274.601 78.9842 276.437C78.9842 278.273 79.2948 279.981 79.9161 281.563C80.5374 283.144 81.3987 284.528 82.5001 285.714C83.6297 286.872 84.957 287.79 86.482 288.467C88.0352 289.117 89.7296 289.442 91.5652 289.442ZM117.443 293C116.822 293 116.299 292.788 115.876 292.365C115.48 291.941 115.283 291.419 115.283 290.797V262.119C115.283 261.47 115.48 260.947 115.876 260.552C116.299 260.128 116.822 259.917 117.443 259.917C118.121 259.917 118.686 260.185 119.138 260.721L137.607 285.29V262.119C137.607 261.47 137.819 260.947 138.242 260.552C138.666 260.128 139.188 259.917 139.809 259.917C140.459 259.917 140.981 260.128 141.377 260.552C141.772 260.947 141.97 261.47 141.97 262.119V290.797C141.97 291.419 141.772 291.941 141.377 292.365C140.981 292.788 140.459 293 139.809 293C139.527 293 139.216 292.944 138.878 292.831C138.567 292.689 138.313 292.492 138.115 292.238L119.646 267.668V290.797C119.646 291.419 119.434 291.941 119.01 292.365C118.615 292.788 118.093 293 117.443 293ZM160.23 293C159.609 293 159.087 292.788 158.663 292.365C158.24 291.941 158.028 291.419 158.028 290.797V259.917H162.433V290.797C162.433 291.419 162.221 291.941 161.798 292.365C161.374 292.788 160.852 293 160.23 293ZM148.878 263.983C148.285 263.983 147.791 263.8 147.395 263.432C147.028 263.037 146.845 262.543 146.845 261.95C146.845 261.357 147.028 260.877 147.395 260.51C147.791 260.114 148.285 259.917 148.878 259.917H171.541C172.134 259.917 172.614 260.114 172.981 260.51C173.376 260.877 173.574 261.357 173.574 261.95C173.574 262.543 173.376 263.037 172.981 263.432C172.614 263.8 172.134 263.983 171.541 263.983H148.878ZM200.647 293C200.025 293 199.503 292.788 199.079 292.365C198.656 291.941 198.444 291.419 198.444 290.797V259.917H202.849V290.797C202.849 291.419 202.638 291.941 202.214 292.365C201.79 292.788 201.268 293 200.647 293ZM189.294 263.983C188.701 263.983 188.207 263.8 187.811 263.432C187.444 263.037 187.261 262.543 187.261 261.95C187.261 261.357 187.444 260.877 187.811 260.51C188.207 260.114 188.701 259.917 189.294 259.917H211.957C212.55 259.917 213.03 260.114 213.397 260.51C213.792 260.877 213.99 261.357 213.99 261.95C213.99 262.543 213.792 263.037 213.397 263.432C213.03 263.8 212.55 263.983 211.957 263.983H189.294ZM221.07 293C220.449 293 219.926 292.788 219.503 292.365C219.079 291.941 218.867 291.419 218.867 290.797V262.119C218.867 261.47 219.079 260.947 219.503 260.552C219.926 260.128 220.449 259.917 221.07 259.917H240.217C240.866 259.917 241.389 260.114 241.784 260.51C242.18 260.877 242.377 261.371 242.377 261.992C242.377 262.585 242.18 263.065 241.784 263.432C241.389 263.8 240.866 263.983 240.217 263.983H223.273V274.277H235.43C236.08 274.277 236.602 274.474 236.998 274.87C237.393 275.237 237.591 275.717 237.591 276.31C237.591 276.903 237.393 277.397 236.998 277.793C236.602 278.16 236.08 278.343 235.43 278.343H223.273V288.933H240.217C240.866 288.933 241.389 289.117 241.784 289.484C242.18 289.851 242.377 290.331 242.377 290.924C242.377 291.546 242.18 292.054 241.784 292.449C241.389 292.816 240.866 293 240.217 293H221.07ZM263.354 293.424C261.067 293.424 258.92 293 256.915 292.153C254.938 291.277 253.202 290.077 251.705 288.552C250.236 286.999 249.079 285.192 248.231 283.13C247.412 281.068 247.003 278.837 247.003 276.437C247.003 274.065 247.412 271.862 248.231 269.829C249.079 267.767 250.236 265.974 251.705 264.449C253.202 262.896 254.938 261.682 256.915 260.806C258.892 259.931 261.038 259.493 263.354 259.493C265.528 259.493 267.392 259.775 268.946 260.34C270.527 260.905 272.108 261.837 273.69 263.136C273.916 263.305 274.085 263.489 274.198 263.687C274.339 263.856 274.424 264.04 274.452 264.237C274.509 264.407 274.537 264.619 274.537 264.873C274.537 265.409 274.339 265.861 273.944 266.228C273.577 266.567 273.125 266.765 272.589 266.821C272.052 266.849 271.53 266.666 271.021 266.271C269.976 265.367 268.889 264.675 267.759 264.195C266.658 263.715 265.19 263.475 263.354 263.475C261.688 263.475 260.12 263.814 258.652 264.491C257.183 265.169 255.884 266.101 254.755 267.287C253.653 268.473 252.792 269.857 252.171 271.439C251.55 272.992 251.239 274.658 251.239 276.437C251.239 278.244 251.55 279.939 252.171 281.52C252.792 283.074 253.653 284.443 254.755 285.629C255.884 286.815 257.183 287.747 258.652 288.425C260.12 289.075 261.688 289.399 263.354 289.399C264.794 289.399 266.15 289.159 267.421 288.679C268.72 288.171 269.962 287.479 271.148 286.604C271.657 286.236 272.151 286.081 272.631 286.138C273.139 286.166 273.563 286.364 273.902 286.731C274.241 287.07 274.41 287.55 274.41 288.171C274.41 288.453 274.354 288.736 274.241 289.018C274.128 289.272 273.958 289.512 273.732 289.738C272.207 290.953 270.569 291.87 268.818 292.492C267.096 293.113 265.274 293.424 263.354 293.424ZM283.659 293C283.038 293 282.515 292.788 282.092 292.365C281.668 291.941 281.456 291.419 281.456 290.797V262.119C281.456 261.47 281.668 260.947 282.092 260.552C282.515 260.128 283.038 259.917 283.659 259.917C284.309 259.917 284.831 260.128 285.227 260.552C285.65 260.947 285.862 261.47 285.862 262.119V274.277H305.517V262.119C305.517 261.47 305.729 260.947 306.153 260.552C306.576 260.128 307.099 259.917 307.72 259.917C308.369 259.917 308.892 260.128 309.287 260.552C309.683 260.947 309.88 261.47 309.88 262.119V290.797C309.88 291.419 309.683 291.941 309.287 292.365C308.892 292.788 308.369 293 307.72 293C307.099 293 306.576 292.788 306.153 292.365C305.729 291.941 305.517 291.419 305.517 290.797V278.174H285.862V290.797C285.862 291.419 285.65 291.941 285.227 292.365C284.831 292.788 284.309 293 283.659 293Z" fill="white"/>
<path fill-rule="evenodd" clip-rule="evenodd" d="M147.484 0C117 0.258759 55.4267 19.5178 53 94.4839H64.4264C63.9808 98.3395 63.7255 102.306 63.6709 106.378C63.6709 158.622 105.973 200.973 158.155 200.973C158.314 200.973 158.474 200.973 158.634 200.972C158.625 200.972 158.618 200.973 158.611 200.973L158.6 200.973V229.096L189.393 195.681C226.224 182.768 252.639 147.661 252.639 106.378C252.639 54.135 210.337 11.7834 158.155 11.7834C158.007 11.7834 157.859 11.7837 157.711 11.7843V11.7827C156.275 11.7721 154.766 11.8082 153.192 11.8946C151.273 11.9811 149.369 12.1178 147.484 12.3039V0ZM153.192 11.8946C154.689 11.8272 156.195 11.7903 157.711 11.7843V34.0142C101.065 33.3917 85.6437 82.1454 85.0138 106.6L63.6716 106.6C63.7342 102.391 63.9928 98.354 64.4303 94.4839H74.0089C74.6455 70.0866 90.2318 21.4474 147.484 22.0684V12.4032C149.462 12.1624 151.37 11.9948 153.192 11.8946ZM85.7294 107.838C85.7104 108.258 85.694 108.68 85.6805 109.104H85.6821C85.6955 108.68 85.7113 108.258 85.7294 107.838ZM157.044 36.6959V36.6904C157.413 36.6849 157.784 36.6821 158.155 36.6821C198.059 36.6821 230.408 69.0305 230.408 108.934C230.408 148.838 198.059 181.187 158.155 181.187C118.325 181.187 86.023 148.958 85.9031 109.157H101.548C101.549 109.139 101.549 109.122 101.55 109.104H102.223C102.705 90.4256 114.498 53.1872 157.815 53.6627V36.767C157.564 36.7396 157.307 36.7159 157.044 36.6959ZM147.895 129.127L121.582 115.807L116.137 124.505L152.129 141.837L199.95 82.2977L192.086 75.3648L147.895 129.127Z" fill="#0085FF"/>
</svg>
