<svg width="66" height="76" viewBox="0 0 66 76" fill="none" xmlns="http://www.w3.org/2000/svg">
<path fill-rule="evenodd" clip-rule="evenodd" d="M30.971 0C20.9788 0.0848188 0.79545 6.39776 0 30.971H3.74547C3.59941 32.2349 3.51572 33.5351 3.49782 34.87C3.49782 51.9949 17.364 65.8774 34.4688 65.8774C34.5206 65.8774 34.5724 65.8773 34.6242 65.877L34.6146 65.8771V75.0956L44.7086 64.1426C56.7814 59.9097 65.4398 48.4022 65.4398 34.87C65.4398 17.745 51.5736 3.86252 34.4688 3.86252L34.3233 3.86281V3.86227C33.8518 3.85879 33.356 3.87068 32.839 3.89913C32.2109 3.92749 31.5881 3.97224 30.971 4.03313V0ZM32.839 3.89913C33.3306 3.87694 33.8255 3.8648 34.3233 3.86281V11.1496C15.7553 10.9455 10.7003 26.9266 10.4938 34.9426L3.49804 34.9426C3.51857 33.5628 3.60332 32.2396 3.74675 30.971H6.88654C7.09522 22.9738 12.2043 7.03027 30.971 7.23384V4.06566C31.6182 3.98686 32.2426 3.93197 32.839 3.89913ZM10.7284 35.3484C10.7222 35.486 10.7168 35.6244 10.7124 35.7634H10.7129C10.7173 35.6243 10.7225 35.486 10.7284 35.3484ZM34.1046 12.0286V12.0268C34.2258 12.025 34.3473 12.0241 34.4689 12.0241C47.5491 12.0241 58.1526 22.6276 58.1526 35.7078C58.1526 48.7879 47.5491 59.3915 34.4689 59.3915C21.4131 59.3915 10.8246 48.8273 10.7853 35.7806H15.9137C15.9139 35.7749 15.914 35.7692 15.9142 35.7634H16.135C16.2929 29.6407 20.1584 17.4343 34.3575 17.5902V12.0519C34.2753 12.0429 34.191 12.0352 34.1046 12.0286ZM31.1057 42.3266L22.4804 37.9604L20.6959 40.8116L32.4937 46.4929L48.169 26.9765L45.5913 24.7039L31.1057 42.3266Z" fill="#0085FF"/>
</svg>
