<svg width="380" height="76" viewBox="0 0 380 76" fill="none" xmlns="http://www.w3.org/2000/svg">
<path d="M89.2668 49.7279C88.6797 49.7279 88.1861 49.5278 87.7858 49.1275C87.3855 48.7273 87.1854 48.2336 87.1854 47.6465V20.5482C87.1854 19.9345 87.3855 19.4408 87.7858 19.0672C88.1861 18.6669 88.6797 18.4668 89.2668 18.4668H97.2722C99.2736 18.4668 101.048 18.9071 102.596 19.7877C104.144 20.6683 105.344 21.8958 106.198 23.4702C107.079 25.0179 107.519 26.8058 107.519 28.8338C107.519 30.7818 107.079 32.5163 106.198 34.0373C105.344 35.5584 104.144 36.7458 102.596 37.5997C101.048 38.4536 99.2736 38.8806 97.2722 38.8806H91.3482V47.6465C91.3482 48.2336 91.1481 48.7273 90.7478 49.1275C90.3742 49.5278 89.8806 49.7279 89.2668 49.7279ZM91.3482 35.038H97.2722C98.4997 35.038 99.5804 34.7712 100.514 34.2375C101.448 33.7038 102.182 32.9699 102.716 32.036C103.25 31.102 103.516 30.0346 103.516 28.8338C103.516 27.5529 103.25 26.4322 102.716 25.4715C102.182 24.4842 101.448 23.7104 100.514 23.15C99.5804 22.5896 98.4997 22.3094 97.2722 22.3094H91.3482V35.038ZM114.206 49.7279C113.618 49.7279 113.125 49.5278 112.725 49.1275C112.324 48.7273 112.124 48.2336 112.124 47.6465V20.5482C112.124 19.9345 112.324 19.4408 112.725 19.0672C113.125 18.6669 113.618 18.4668 114.206 18.4668H121.41C123.412 18.4668 125.186 18.8938 126.734 19.7477C128.282 20.5749 129.483 21.7223 130.336 23.19C131.217 24.6577 131.657 26.3655 131.657 28.3135C131.657 30.128 131.217 31.7424 130.336 33.1567C129.483 34.571 128.282 35.6784 126.734 36.479C125.186 37.2795 123.412 37.6798 121.41 37.6798H116.287V47.6465C116.287 48.2336 116.087 48.7273 115.687 49.1275C115.313 49.5278 114.819 49.7279 114.206 49.7279ZM130.817 49.7279C130.443 49.7279 130.096 49.6479 129.776 49.4878C129.483 49.3277 129.229 49.0742 129.016 48.7273L121.811 37.1194L125.853 35.9586L132.418 46.5258C132.898 47.2996 132.965 48.0335 132.618 48.7273C132.271 49.3944 131.671 49.7279 130.817 49.7279ZM116.287 33.8372H121.41C122.638 33.8372 123.719 33.6104 124.653 33.1567C125.587 32.6764 126.32 32.0226 126.854 31.1954C127.388 30.3415 127.655 29.3809 127.655 28.3135C127.655 27.1393 127.388 26.0986 126.854 25.1914C126.32 24.2841 125.587 23.5769 124.653 23.0699C123.719 22.5629 122.638 22.3094 121.41 22.3094H116.287V33.8372ZM151.864 50.1282C149.516 50.1282 147.368 49.7413 145.42 48.9674C143.472 48.1669 141.791 47.0595 140.377 45.6452C138.989 44.2042 137.908 42.5097 137.134 40.5617C136.361 38.5871 135.974 36.4256 135.974 34.0774C135.974 31.7291 136.361 29.581 137.134 27.633C137.908 25.685 138.989 24.0039 140.377 22.5896C141.791 21.1486 143.472 20.0412 145.42 19.2673C147.368 18.4668 149.516 18.0665 151.864 18.0665C154.213 18.0665 156.347 18.4668 158.269 19.2673C160.217 20.0412 161.898 21.1486 163.312 22.5896C164.726 24.0039 165.821 25.685 166.594 27.633C167.368 29.581 167.755 31.7291 167.755 34.0774C167.755 36.4256 167.368 38.5871 166.594 40.5617C165.821 42.5097 164.726 44.2042 163.312 45.6452C161.898 47.0595 160.217 48.1669 158.269 48.9674C156.347 49.7413 154.213 50.1282 151.864 50.1282ZM151.864 46.3657C153.599 46.3657 155.187 46.0588 156.628 45.445C158.095 44.8046 159.363 43.9374 160.43 42.8433C161.498 41.7225 162.311 40.415 162.872 38.9206C163.459 37.4263 163.752 35.8119 163.752 34.0774C163.752 32.3429 163.459 30.7284 162.872 29.2341C162.311 27.7397 161.498 26.4455 160.43 25.3515C159.363 24.2307 158.095 23.3635 156.628 22.7497C155.187 22.136 153.599 21.8291 151.864 21.8291C150.13 21.8291 148.529 22.136 147.061 22.7497C145.62 23.3635 144.366 24.2307 143.299 25.3515C142.258 26.4455 141.444 27.7397 140.857 29.2341C140.27 30.7284 139.976 32.3429 139.976 34.0774C139.976 35.8119 140.27 37.4263 140.857 38.9206C141.444 40.415 142.258 41.7225 143.299 42.8433C144.366 43.9374 145.62 44.8046 147.061 45.445C148.529 46.0588 150.13 46.3657 151.864 46.3657ZM176.317 49.7279C175.73 49.7279 175.236 49.5278 174.836 49.1275C174.462 48.7273 174.276 48.2336 174.276 47.6465V20.5482C174.276 19.9345 174.462 19.4408 174.836 19.0672C175.236 18.6669 175.73 18.4668 176.317 18.4668C176.957 18.4668 177.491 18.7203 177.918 19.2273L195.37 42.443V20.5482C195.37 19.9345 195.57 19.4408 195.97 19.0672C196.37 18.6669 196.864 18.4668 197.451 18.4668C198.065 18.4668 198.559 18.6669 198.932 19.0672C199.306 19.4408 199.493 19.9345 199.493 20.5482V47.6465C199.493 48.2336 199.306 48.7273 198.932 49.1275C198.559 49.5278 198.065 49.7279 197.451 49.7279C197.184 49.7279 196.891 49.6746 196.571 49.5678C196.277 49.4344 196.037 49.2476 195.85 49.0074L178.398 25.7918V47.6465C178.398 48.2336 178.198 48.7273 177.798 49.1275C177.424 49.5278 176.931 49.7279 176.317 49.7279ZM216.747 49.7279C216.16 49.7279 215.667 49.5278 215.266 49.1275C214.866 48.7273 214.666 48.2336 214.666 47.6465V18.4668H218.829V47.6465C218.829 48.2336 218.629 48.7273 218.228 49.1275C217.828 49.5278 217.334 49.7279 216.747 49.7279ZM206.02 22.3094C205.46 22.3094 204.993 22.136 204.619 21.7891C204.272 21.4155 204.099 20.9485 204.099 20.3881C204.099 19.8277 204.272 19.3741 204.619 19.0272C204.993 18.6536 205.46 18.4668 206.02 18.4668H227.435C227.995 18.4668 228.449 18.6536 228.795 19.0272C229.169 19.3741 229.356 19.8277 229.356 20.3881C229.356 20.9485 229.169 21.4155 228.795 21.7891C228.449 22.136 227.995 22.3094 227.435 22.3094H206.02ZM254.937 49.7279C254.35 49.7279 253.856 49.5278 253.456 49.1275C253.056 48.7273 252.856 48.2336 252.856 47.6465V18.4668H257.019V47.6465C257.019 48.2336 256.818 48.7273 256.418 49.1275C256.018 49.5278 255.524 49.7279 254.937 49.7279ZM244.21 22.3094C243.65 22.3094 243.183 22.136 242.809 21.7891C242.462 21.4155 242.289 20.9485 242.289 20.3881C242.289 19.8277 242.462 19.3741 242.809 19.0272C243.183 18.6536 243.65 18.4668 244.21 18.4668H265.624C266.185 18.4668 266.638 18.6536 266.985 19.0272C267.359 19.3741 267.546 19.8277 267.546 20.3881C267.546 20.9485 267.359 21.4155 266.985 21.7891C266.638 22.136 266.185 22.3094 265.624 22.3094H244.21ZM274.236 49.7279C273.648 49.7279 273.155 49.5278 272.755 49.1275C272.354 48.7273 272.154 48.2336 272.154 47.6465V20.5482C272.154 19.9345 272.354 19.4408 272.755 19.0672C273.155 18.6669 273.648 18.4668 274.236 18.4668H292.328C292.942 18.4668 293.435 18.6536 293.809 19.0272C294.182 19.3741 294.369 19.8411 294.369 20.4281C294.369 20.9885 294.182 21.4422 293.809 21.7891C293.435 22.136 292.942 22.3094 292.328 22.3094H276.317V32.036H287.805C288.418 32.036 288.912 32.2228 289.286 32.5964C289.659 32.9433 289.846 33.3969 289.846 33.9573C289.846 34.5177 289.659 34.9846 289.286 35.3582C288.912 35.7051 288.418 35.8786 287.805 35.8786H276.317V45.8853H292.328C292.942 45.8853 293.435 46.0588 293.809 46.4057C294.182 46.7526 294.369 47.2062 294.369 47.7666C294.369 48.3537 294.182 48.834 293.809 49.2076C293.435 49.5545 292.942 49.7279 292.328 49.7279H274.236ZM314.19 50.1282C312.029 50.1282 310.001 49.7279 308.106 48.9274C306.238 48.1002 304.597 46.9661 303.183 45.5251C301.795 44.0574 300.701 42.3496 299.901 40.4016C299.127 38.4536 298.74 36.3456 298.74 34.0774C298.74 31.8358 299.127 29.7544 299.901 27.8331C300.701 25.8852 301.795 24.1907 303.183 22.7497C304.597 21.282 306.238 20.1346 308.106 19.3074C309.974 18.4802 312.002 18.0665 314.19 18.0665C316.245 18.0665 318.006 18.3334 319.474 18.8671C320.968 19.4008 322.463 20.2814 323.957 21.5089C324.17 21.669 324.331 21.8424 324.437 22.0292C324.571 22.1893 324.651 22.3628 324.677 22.5496C324.731 22.7097 324.758 22.9098 324.758 23.15C324.758 23.657 324.571 24.0839 324.197 24.4308C323.85 24.7511 323.423 24.9378 322.916 24.9912C322.409 25.0179 321.916 24.8445 321.435 24.4709C320.448 23.617 319.421 22.9632 318.353 22.5095C317.312 22.0559 315.925 21.8291 314.19 21.8291C312.616 21.8291 311.135 22.1493 309.747 22.7897C308.36 23.4302 307.132 24.3108 306.065 25.4315C305.024 26.5523 304.21 27.8598 303.623 29.3542C303.036 30.8218 302.743 32.3962 302.743 34.0774C302.743 35.7852 303.036 37.3863 303.623 38.8806C304.21 40.3483 305.024 41.6425 306.065 42.7632C307.132 43.884 308.36 44.7646 309.747 45.405C311.135 46.0188 312.616 46.3256 314.19 46.3256C315.551 46.3256 316.832 46.0988 318.033 45.6452C319.26 45.1649 320.435 44.5111 321.555 43.6839C322.036 43.3369 322.503 43.1902 322.956 43.2436C323.437 43.2702 323.837 43.457 324.157 43.8039C324.477 44.1241 324.637 44.5778 324.637 45.1649C324.637 45.4317 324.584 45.6985 324.477 45.9654C324.371 46.2056 324.21 46.4324 323.997 46.6459C322.556 47.7933 321.008 48.6605 319.354 49.2476C317.726 49.8347 316.005 50.1282 314.19 50.1282ZM333.377 49.7279C332.79 49.7279 332.296 49.5278 331.896 49.1275C331.496 48.7273 331.296 48.2336 331.296 47.6465V20.5482C331.296 19.9345 331.496 19.4408 331.896 19.0672C332.296 18.6669 332.79 18.4668 333.377 18.4668C333.991 18.4668 334.484 18.6669 334.858 19.0672C335.258 19.4408 335.458 19.9345 335.458 20.5482V32.036H354.031V20.5482C354.031 19.9345 354.231 19.4408 354.631 19.0672C355.032 18.6669 355.525 18.4668 356.112 18.4668C356.726 18.4668 357.22 18.6669 357.593 19.0672C357.967 19.4408 358.154 19.9345 358.154 20.5482V47.6465C358.154 48.2336 357.967 48.7273 357.593 49.1275C357.22 49.5278 356.726 49.7279 356.112 49.7279C355.525 49.7279 355.032 49.5278 354.631 49.1275C354.231 48.7273 354.031 48.2336 354.031 47.6465V35.7185H335.458V47.6465C335.458 48.2336 335.258 48.7273 334.858 49.1275C334.484 49.5278 333.991 49.7279 333.377 49.7279Z" fill="white"/>
<path fill-rule="evenodd" clip-rule="evenodd" d="M30.971 0C20.9788 0.0848188 0.79545 6.39776 0 30.971H3.74547C3.59941 32.2349 3.51572 33.5351 3.49782 34.87C3.49782 51.9949 17.364 65.8774 34.4688 65.8774C34.5206 65.8774 34.5724 65.8773 34.6242 65.877L34.6146 65.8771V75.0956L44.7086 64.1426C56.7814 59.9097 65.4398 48.4022 65.4398 34.87C65.4398 17.745 51.5736 3.86252 34.4688 3.86252L34.3233 3.86281V3.86227C33.8518 3.85879 33.356 3.87068 32.839 3.89913C32.2109 3.92749 31.5881 3.97224 30.971 4.03313V0ZM32.839 3.89913C33.3306 3.87694 33.8255 3.8648 34.3233 3.86281V11.1496C15.7553 10.9455 10.7003 26.9266 10.4938 34.9426L3.49804 34.9426C3.51857 33.5628 3.60332 32.2396 3.74675 30.971H6.88654C7.09522 22.9738 12.2043 7.03027 30.971 7.23384V4.06566C31.6182 3.98686 32.2426 3.93197 32.839 3.89913ZM10.7284 35.3484C10.7222 35.486 10.7168 35.6244 10.7124 35.7634H10.7129C10.7173 35.6243 10.7225 35.486 10.7284 35.3484ZM34.1046 12.0286V12.0268C34.2258 12.025 34.3473 12.0241 34.4689 12.0241C47.5491 12.0241 58.1526 22.6276 58.1526 35.7078C58.1526 48.7879 47.5491 59.3915 34.4689 59.3915C21.4131 59.3915 10.8246 48.8273 10.7853 35.7806H15.9137C15.9139 35.7749 15.914 35.7692 15.9142 35.7634H16.135C16.2929 29.6407 20.1584 17.4343 34.3575 17.5902V12.0519C34.2753 12.0429 34.191 12.0352 34.1046 12.0286ZM31.1057 42.3266L22.4804 37.9604L20.6959 40.8116L32.4937 46.4929L48.169 26.9765L45.5913 24.7039L31.1057 42.3266Z" fill="#0085FF"/>
</svg>
